<?xml version="1.0" encoding="iso-8859-1"?>
<!-- Generator: Adobe Illustrator 19.0.0, SVG Export Plug-In . SVG Version: 6.00 Build 0)  -->
<svg version="1.1" id="Capa_1" xmlns="http://www.w3.org/2000/svg" xmlns:xlink="http://www.w3.org/1999/xlink" x="0px" y="0px"
	 viewBox="0 0 512 512" style="enable-background:new 0 0 512 512;" xml:space="preserve">
<g>
	<g>
		<path d="M469.607,114.92c-18.484-27.913-41.891-51.628-69.567-70.49c-6.849-4.665-16.179-2.9-20.844,3.942
			c-4.667,6.843-2.901,16.17,3.943,20.835c24.448,16.661,45.124,37.61,61.452,62.266c4.568,6.898,13.87,8.801,20.788,4.226
			C472.286,131.128,474.18,121.825,469.607,114.92z"/>
	</g>
</g>
<g>
	<g>
		<path d="M465.319,376.414c-6.904-4.575-16.213-2.686-20.789,4.215c-16.344,24.649-37.03,45.588-61.486,62.236
			c-6.847,4.661-8.618,13.988-3.955,20.833c4.664,6.846,13.998,8.612,20.842,3.953c27.686-18.847,51.105-42.551,69.606-70.457
			C474.113,390.292,472.225,380.988,465.319,376.414z"/>
	</g>
</g>
<g>
	<g>
		<path d="M507.225,206.57c-1.592-8.127-9.476-13.424-17.603-11.834c-8.13,1.591-13.431,9.469-11.839,17.595
			c5.451,27.829,5.799,57.834-0.024,87.471c-1.597,8.125,3.699,16.006,11.828,17.602c8.156,1.598,16.018-3.721,17.609-11.823
			C513.402,274.001,513.787,240.071,507.225,206.57z"/>
	</g>
</g>
<g>
	<g>
		<path d="M320.336,488.71c-1.698-8.105-9.649-13.293-17.757-11.602c-10.359,2.169-20.933,3.591-31.579,4.29V30.609
			c10.647,0.699,21.22,2.121,31.579,4.29c8.119,1.696,16.06-3.504,17.757-11.602c1.698-8.105-3.498-16.052-11.606-17.749
			C149.322-27.826,0,93.604,0,256.004c0,162.749,149.665,283.758,308.73,250.455C316.838,504.761,322.035,496.815,320.336,488.71z"
			/>
	</g>
</g>
<g>
</g>
<g>
</g>
<g>
</g>
<g>
</g>
<g>
</g>
<g>
</g>
<g>
</g>
<g>
</g>
<g>
</g>
<g>
</g>
<g>
</g>
<g>
</g>
<g>
</g>
<g>
</g>
<g>
</g>
</svg>
