<?xml version="1.0" encoding="iso-8859-1"?>
<!-- Generator: Adobe Illustrator 19.0.0, SVG Export Plug-In . SVG Version: 6.00 Build 0)  -->
<svg version="1.1" id="Capa_1" xmlns="http://www.w3.org/2000/svg" xmlns:xlink="http://www.w3.org/1999/xlink" x="0px" y="0px"
	 viewBox="0 0 512 512" style="enable-background:new 0 0 512 512;" xml:space="preserve">
<g>
	<g>
		<rect x="271" y="151" width="30" height="30"/>
	</g>
</g>
<g>
	<g>
		<rect x="211" y="151" width="30" height="30"/>
	</g>
</g>
<g>
	<g>
		<rect x="271" y="211" width="30" height="30"/>
	</g>
</g>
<g>
	<g>
		<rect x="211" y="331" width="30" height="30"/>
	</g>
</g>
<g>
	<g>
		<rect x="391" y="271" width="30" height="30"/>
	</g>
</g>
<g>
	<g>
		<rect x="211" y="211" width="30" height="30"/>
	</g>
</g>
<g>
	<g>
		<rect x="151" y="271" width="30" height="30"/>
	</g>
</g>
<g>
	<g>
		<rect x="211" y="271" width="30" height="30"/>
	</g>
</g>
<g>
	<g>
		<rect x="151" y="211" width="30" height="30"/>
	</g>
</g>
<g>
	<g>
		<rect x="331" y="211" width="30" height="30"/>
	</g>
</g>
<g>
	<g>
		<rect y="91" width="61" height="330"/>
	</g>
</g>
<g>
	<g>
		<rect width="61" height="61"/>
	</g>
</g>
<g>
	<g>
		<rect x="91" width="330" height="61"/>
	</g>
</g>
<g>
	<g>
		<rect x="451" width="61" height="61"/>
	</g>
</g>
<g>
	<g>
		<rect y="451" width="61" height="61"/>
	</g>
</g>
<g>
	<g>
		<rect x="451" y="451" width="61" height="61"/>
	</g>
</g>
<g>
	<g>
		<rect x="91" y="451" width="330" height="61"/>
	</g>
</g>
<g>
	<g>
		<rect x="91" y="151" width="30" height="30"/>
	</g>
</g>
<g>
	<g>
		<rect x="151" y="391" width="30" height="30"/>
	</g>
</g>
<g>
	<g>
		<rect x="271" y="391" width="30" height="30"/>
	</g>
</g>
<g>
	<g>
		<rect x="331" y="391" width="30" height="30"/>
	</g>
</g>
<g>
	<g>
		<rect x="331" y="331" width="30" height="30"/>
	</g>
</g>
<g>
	<g>
		<rect x="151" y="331" width="30" height="30"/>
	</g>
</g>
<g>
	<g>
		<rect x="91" y="331" width="30" height="30"/>
	</g>
</g>
<g>
	<g>
		<rect x="391" y="331" width="30" height="30"/>
	</g>
</g>
<g>
	<g>
		<rect x="211" y="391" width="30" height="30"/>
	</g>
</g>
<g>
	<g>
		<rect x="451" y="91" width="61" height="330"/>
	</g>
</g>
<g>
	<g>
		<rect x="391" y="391" width="30" height="30"/>
	</g>
</g>
<g>
	<g>
		<rect x="271" y="331" width="30" height="30"/>
	</g>
</g>
<g>
	<g>
		<rect x="391" y="91" width="30" height="30"/>
	</g>
</g>
<g>
	<g>
		<rect x="91" y="91" width="30" height="30"/>
	</g>
</g>
<g>
	<g>
		<rect x="91" y="391" width="30" height="30"/>
	</g>
</g>
<g>
	<g>
		<rect x="391" y="151" width="30" height="30"/>
	</g>
</g>
<g>
	<g>
		<rect x="331" y="151" width="30" height="30"/>
	</g>
</g>
<g>
	<g>
		<rect x="331" y="91" width="30" height="30"/>
	</g>
</g>
<g>
	<g>
		<rect x="271" y="91" width="30" height="30"/>
	</g>
</g>
<g>
	<g>
		<rect x="391" y="211" width="30" height="30"/>
	</g>
</g>
<g>
	<g>
		<rect x="271" y="271" width="30" height="30"/>
	</g>
</g>
<g>
	<g>
		<rect x="91" y="271" width="30" height="30"/>
	</g>
</g>
<g>
	<g>
		<rect x="331" y="271" width="30" height="30"/>
	</g>
</g>
<g>
	<g>
		<rect x="211" y="91" width="30" height="30"/>
	</g>
</g>
<g>
	<g>
		<rect x="91" y="211" width="30" height="30"/>
	</g>
</g>
<g>
	<g>
		<rect x="151" y="151" width="30" height="30"/>
	</g>
</g>
<g>
	<g>
		<rect x="151" y="91" width="30" height="30"/>
	</g>
</g>
<g>
</g>
<g>
</g>
<g>
</g>
<g>
</g>
<g>
</g>
<g>
</g>
<g>
</g>
<g>
</g>
<g>
</g>
<g>
</g>
<g>
</g>
<g>
</g>
<g>
</g>
<g>
</g>
<g>
</g>
</svg>
