<?xml version="1.0" encoding="iso-8859-1"?>
<!-- Generator: Adobe Illustrator 19.0.0, SVG Export Plug-In . SVG Version: 6.00 Build 0)  -->
<svg version="1.1" id="Capa_1" xmlns="http://www.w3.org/2000/svg" xmlns:xlink="http://www.w3.org/1999/xlink" x="0px" y="0px"
	 viewBox="0 0 512 512" style="enable-background:new 0 0 512 512;" xml:space="preserve">
<g>
	<g>
		<path d="M161.524,0H15.238C6.823,0,0,6.823,0,15.238v323.747L176.762,32.824V15.238C176.762,6.823,169.939,0,161.524,0z"/>
	</g>
</g>
<g>
	<g>
		<path d="M370.635,102.578c-1.046-3.904-3.599-7.232-7.1-9.253L236.848,20.182c-7.289-4.211-16.609-1.711-20.815,5.577
			L54.157,306.134l306.161-176.762l8.794-15.232C371.133,110.641,371.681,106.481,370.635,102.578z"/>
	</g>
</g>
<g>
	<g>
		<path d="M491.817,275.153l-73.143-126.686c-4.208-7.288-13.526-9.787-20.815-5.577L117.487,304.762h353.522l15.231-8.793
			C493.527,291.76,496.024,282.441,491.817,275.153z"/>
	</g>
</g>
<g>
	<g>
		<path d="M496.762,335.238H90.413c-48.733,0-88.381,39.648-88.381,88.381S41.679,512,90.413,512h406.349
			c8.415,0,15.238-6.823,15.238-15.238V350.476C512,342.061,505.177,335.238,496.762,335.238z M88.381,438.857
			c-8.542,0-14.868-6.982-15.238-15.238c-0.369-8.23,7.268-15.238,15.238-15.238c8.542,0,14.868,6.982,15.238,15.238
			C103.988,431.849,96.352,438.857,88.381,438.857z"/>
	</g>
</g>
<g>
</g>
<g>
</g>
<g>
</g>
<g>
</g>
<g>
</g>
<g>
</g>
<g>
</g>
<g>
</g>
<g>
</g>
<g>
</g>
<g>
</g>
<g>
</g>
<g>
</g>
<g>
</g>
<g>
</g>
</svg>
