<?xml version="1.0" encoding="iso-8859-1"?>
<!-- Generator: Adobe Illustrator 19.0.0, SVG Export Plug-In . SVG Version: 6.00 Build 0)  -->
<svg version="1.1" id="Capa_1" xmlns="http://www.w3.org/2000/svg" xmlns:xlink="http://www.w3.org/1999/xlink" x="0px" y="0px"
	 viewBox="0 0 512.001 512.001" style="enable-background:new 0 0 512.001 512.001;" xml:space="preserve">
<g>
	<g>
		<path d="M500.036,216.902c-27.728-5.813-49.4-27.485-55.211-55.211c-1.461-6.972-7.609-11.966-14.734-11.966
			c-7.123,0-13.273,4.993-14.734,11.965c-5.813,27.727-27.485,49.399-55.211,55.21c-6.972,1.461-11.966,7.61-11.966,14.734
			s4.994,13.271,11.966,14.734c27.726,5.812,49.398,27.483,55.209,55.21c1.461,6.972,7.609,11.966,14.734,11.966
			c7.122,0,13.271-4.993,14.734-11.965c5.813-27.726,27.485-49.398,55.212-55.209c6.972-1.461,11.966-7.609,11.966-14.734
			C512.001,224.512,507.007,218.363,500.036,216.902z"/>
	</g>
</g>
<g>
	<g>
		<path d="M216.978,101.882c-22.658-4.75-40.368-22.46-45.117-45.118c-1.461-6.971-7.609-11.965-14.734-11.965
			c-7.124,0-13.272,4.993-14.734,11.965c-4.749,22.658-22.459,40.367-45.117,45.116c-6.972,1.462-11.966,7.61-11.966,14.734
			s4.994,13.273,11.965,14.734c22.658,4.75,40.368,22.46,45.117,45.118c1.461,6.971,7.609,11.965,14.734,11.965
			c7.123,0,13.272-4.994,14.734-11.965c4.75-22.658,22.459-40.367,45.117-45.116c6.972-1.461,11.966-7.609,11.966-14.734
			C228.943,109.493,223.949,103.344,216.978,101.882z"/>
	</g>
</g>
<g>
	<g>
		<path d="M383.645,328.356c-22.657-4.75-40.366-22.46-45.116-45.118c-1.461-6.972-7.609-11.965-14.734-11.965
			c-7.124,0-13.272,4.993-14.734,11.965c-4.749,22.658-22.459,40.367-45.117,45.116c-6.972,1.461-11.966,7.61-11.966,14.734
			s4.994,13.272,11.966,14.734c22.657,4.75,40.366,22.46,45.116,45.118c1.461,6.972,7.609,11.965,14.734,11.965
			c7.123,0,13.271-4.993,14.734-11.965c4.749-22.658,22.459-40.367,45.117-45.116c6.972-1.461,11.966-7.61,11.966-14.734
			C395.611,335.967,390.617,329.817,383.645,328.356z"/>
	</g>
</g>
<g>
	<g>
		<path d="M258.495,143.413L4.41,397.499C1.586,400.322,0,404.15,0,408.143c0,3.993,1.586,7.821,4.41,10.644l44.005,44.005
			c2.94,2.939,6.792,4.41,10.644,4.41s7.706-1.469,10.644-4.41l254.086-254.085L258.495,143.413z"/>
	</g>
</g>
<g>
	<g>
		<path d="M386.666,124.541L342.66,80.536c-5.878-5.879-15.41-5.879-21.289,0l-41.588,41.588l65.293,65.294l41.588-41.588
			c2.823-2.823,4.41-6.652,4.41-10.644C391.075,131.194,389.49,127.365,386.666,124.541z"/>
	</g>
</g>
<g>
</g>
<g>
</g>
<g>
</g>
<g>
</g>
<g>
</g>
<g>
</g>
<g>
</g>
<g>
</g>
<g>
</g>
<g>
</g>
<g>
</g>
<g>
</g>
<g>
</g>
<g>
</g>
<g>
</g>
</svg>
