<?xml version="1.0" encoding="iso-8859-1"?>
<!-- Generator: Adobe Illustrator 19.0.0, SVG Export Plug-In . SVG Version: 6.00 Build 0)  -->
<svg version="1.1" id="Capa_1" xmlns="http://www.w3.org/2000/svg" xmlns:xlink="http://www.w3.org/1999/xlink" x="0px" y="0px"
	 viewBox="0 0 385.582 385.582" style="enable-background:new 0 0 385.582 385.582;" xml:space="preserve">
<g>
	<g>
		<path d="M354.631,108.81l11.776-11.776c23.04-19.968,25.6-54.784,6.144-77.824c-19.968-23.04-54.784-25.6-77.824-6.144
			c-2.048,2.048-4.096,4.096-6.144,6.144l-11.776,11.776l-13.824-13.824c-20.48-20.48-53.76-20.48-74.24,0
			c-17.408,17.408-20.48,44.544-7.168,65.536L302.407,203.53c24.064,15.872,56.832,8.704,72.192-15.36
			c13.312-20.48,10.24-48.128-7.168-65.536L354.631,108.81z"/>
	</g>
</g>
<g>
	<g>
		<path d="M166.215,106.25L37.191,235.786c-18.944,18.944-25.6,46.592-17.92,72.192l-7.68,7.68
			c-15.872,16.384-15.36,42.496,1.024,58.368c15.872,15.36,41.472,15.36,57.344,0l7.68-7.68c25.6,8.192,53.248,1.536,72.192-17.408
			l129.536-129.536L166.215,106.25z"/>
	</g>
</g>
<g>
</g>
<g>
</g>
<g>
</g>
<g>
</g>
<g>
</g>
<g>
</g>
<g>
</g>
<g>
</g>
<g>
</g>
<g>
</g>
<g>
</g>
<g>
</g>
<g>
</g>
<g>
</g>
<g>
</g>
</svg>
