<?xml version="1.0" encoding="iso-8859-1"?>
<!-- Generator: Adobe Illustrator 19.0.0, SVG Export Plug-In . SVG Version: 6.00 Build 0)  -->
<svg version="1.1" id="Layer_1" xmlns="http://www.w3.org/2000/svg" xmlns:xlink="http://www.w3.org/1999/xlink" x="0px" y="0px"
	 viewBox="0 0 512 512" style="enable-background:new 0 0 512 512;" xml:space="preserve">
<g>
	<g>
		<path d="M410.439,194.739c1.227-7.901,1.867-15.998,1.867-24.243c0-86.586-70.19-156.775-156.775-156.775
			c-86.583,0-156.775,70.19-156.775,156.775c0,8.363,0.661,16.57,1.923,24.58C41.803,217.644,0,274.688,0,341.504
			c0,86.586,70.19,156.775,156.775,156.775c37.645,0,72.185-13.273,99.212-35.387c-43.592-35.562-64.128-91.486-55.667-145.62
			c-51.954-19.541-90.786-65.868-99.665-122.158C153.727,174.702,213.12,185.078,256,220.117
			c42.627-34.831,101.573-45.288,154.407-25.356c-8.717,56.11-47.192,102.369-98.784,122.155
			c8.608,54.246-11.919,110.337-55.608,145.978c27.025,22.114,61.566,35.386,99.21,35.386c86.584,0,156.775-70.19,156.775-156.775
			C512,274.354,469.779,217.076,410.439,194.739z M103.158,320.43c4.105,0,8.037,0.448,11.801,1.345
			c3.763,0.898,7.247,2.225,10.454,3.976c3.207,1.753,6.091,3.848,8.657,6.285c2.567,2.437,4.66,5.196,6.285,8.273l-18.599,14.238
			c-1.796-3.592-4.49-6.478-8.081-8.658c-3.592-2.179-7.397-3.271-11.416-3.271c-2.996,0-5.731,0.6-8.209,1.797
			c-2.481,1.199-4.618,2.866-6.414,5.003c-1.797,2.138-3.207,4.682-4.234,7.632c-1.026,2.95-1.539,6.18-1.539,9.684
			c0,3.593,0.513,6.844,1.539,9.75c1.028,2.907,2.458,5.409,4.298,7.504c1.837,2.096,4.041,3.72,6.606,4.874
			c2.565,1.154,5.43,1.732,8.594,1.732c7.267,0,13.681-2.993,19.241-8.979h-15.776v-17.958h37.455v48.486h-20.652v-7.568
			c-6.5,5.473-13.983,8.209-22.447,8.209c-5.9,0-11.546-1.046-16.932-3.143c-5.387-2.095-10.092-5.151-14.11-9.173
			c-4.019-4.018-7.226-8.933-9.62-14.751c-2.396-5.813-3.592-12.442-3.592-19.882c0-6.414,1.196-12.378,3.592-17.894
			c2.394-5.516,5.685-10.304,9.877-14.366c4.189-4.06,9.127-7.267,14.817-9.62C90.437,321.606,96.572,320.43,103.158,320.43z
			 M267.095,161.804l-16.034-27.964h-9.364v27.963h-25.013V70.73h41.816c4.445,0,8.55,0.921,12.314,2.759
			c3.763,1.84,6.991,4.233,9.684,7.183c2.695,2.949,4.81,6.328,6.349,10.132c1.539,3.807,2.309,7.634,2.309,11.482
			c0,5.303-1.154,10.242-3.463,14.815c-2.309,4.576-5.516,8.318-9.62,11.224l19.241,33.479H267.095z M452.967,400.022
			c-1.712,2.95-4.063,5.367-7.055,7.247c-2.994,1.881-6.478,3.271-10.454,4.169c-3.976,0.898-8.188,1.347-12.633,1.347h-44.766
			v-91.072h52.848c3.163,0,6.029,0.686,8.593,2.052c2.567,1.368,4.746,3.143,6.543,5.323c1.796,2.179,3.184,4.662,4.169,7.44
			c0.981,2.779,1.475,5.624,1.475,8.53c0,4.276-1.092,8.359-3.271,12.25c-2.181,3.891-5.452,6.82-9.814,8.787
			c5.215,1.539,9.342,4.213,12.378,8.017c3.034,3.805,4.552,8.915,4.552,15.328C455.532,393.545,454.679,397.072,452.967,400.022z"
			/>
	</g>
</g>
<g>
	<g>
		<path d="M425.131,344.609c-1.199-1.069-2.608-1.603-4.233-1.603h-17.83v13.982h17.06c1.712,0,3.272-0.47,4.683-1.411
			c1.411-0.941,2.116-2.822,2.116-5.644C426.928,347.453,426.328,345.68,425.131,344.609z"/>
	</g>
</g>
<g>
	<g>
		<path d="M428.339,378.729c-1.199-1.495-2.738-2.245-4.616-2.245h-20.652v15.264h19.754c2.051,0,3.783-0.641,5.195-1.926
			c1.411-1.281,2.116-3.12,2.116-5.516C430.136,382.086,429.536,380.226,428.339,378.729z"/>
	</g>
</g>
<g>
	<g>
		<path d="M261.453,95.039c-1.541-1.668-3.08-2.501-4.619-2.501h-15.136v19.497h15.777c1.539,0,2.97-0.855,4.297-2.565
			c1.325-1.71,1.988-4.105,1.988-7.183C263.76,99.122,262.992,96.706,261.453,95.039z"/>
	</g>
</g>
<g>
	<g>
		<path d="M292.53,263.136c-9.774-16.932-22.239-31.339-36.53-43.019c-14.291,11.678-26.753,26.087-36.529,43.019
			c-9.952,17.24-16.25,35.584-19.152,54.136c17.168,6.459,35.76,9.999,55.182,9.999c19.778,0,38.695-3.671,56.121-10.356
			C308.697,298.482,302.418,280.263,292.53,263.136z"/>
	</g>
</g>
<g>
</g>
<g>
</g>
<g>
</g>
<g>
</g>
<g>
</g>
<g>
</g>
<g>
</g>
<g>
</g>
<g>
</g>
<g>
</g>
<g>
</g>
<g>
</g>
<g>
</g>
<g>
</g>
<g>
</g>
</svg>
