<svg xmlns="http://www.w3.org/2000/svg" width="24" height="24" xmlns:v="https://vecta.io/nano"><path d="M1.008 20.094a.92.92 0 0 1-.211-.219c-.016-.039-.027-3.57-.039-7.852l.086-7.938c.051-.082.16-.191.242-.242.156-.094.266-.094 10.91-.094h10.746l.176.098a.73.73 0 0 1 .254.258c.074.156.078.625.078 7.902l-.098 7.895a.91.91 0 0 1-.25.254l-.152.094H1.195zm7.055-4.504c2.18-2.18 3.207-3.172 3.297-3.195a2.03 2.03 0 0 1 .641.031c.09.023.355.355.367.457.023.227.004.496-.043.586-.027.055-1.215 1.27-2.641 2.695L7.102 18.75H21.75V5.25h-9.773L2.25 14.977v1.922l5.031-5.02 5.133-5.078c.055-.031.227-.051.379-.047.324.016.539.145.641.398.082.188.086.551.016.691-.027.055-2.48 2.531-5.449 5.5l-5.395 5.402 2.289.008zm.555-10.332L7.477 5.25 2.25 10.477v2.297l7.5-7.5zM3.773 6.75l1.5-1.5H2.25v1.5l.016 1.5a216.91 216.91 0 0 0 1.508-1.5zm0 0" fill="rgb(54.901961%,54.901961%,54.901961%)"/></svg>