<svg xmlns="http://www.w3.org/2000/svg" viewBox="0 0 24 24">
  <g fill="#888">
    <path d="M12 11.145a.854.854 0 0 1-.855-.86A.85.85 0 0 1 12 9.43a.85.85 0 0 1 .855.855c0 .477-.378.86-.855.86Zm0 0"/>
    <path fill-rule="evenodd" d="M12 4.715A7.285 7.285 0 1 1 4.715 12 7.295 7.295 0 0 1 12 4.715Zm3.43 7.344a1.713 1.713 0 0 0-1.285 1.656c0 .781.53 1.46 1.285 1.652v.488a.428.428 0 1 0 .855 0v-.488a1.705 1.705 0 0 0 1.285-1.652c0-.781-.53-1.461-1.285-1.656V8.145a.428.428 0 1 0-.855 0Zm-5.145-1.774c0 .781.531 1.461 1.285 1.656v3.914c0 .239.196.43.43.43a.43.43 0 0 0 .43-.43v-3.914a1.713 1.713 0 0 0 1.285-1.656c0-.781-.531-1.46-1.285-1.652v-.488a.43.43 0 0 0-.43-.43.43.43 0 0 0-.43.43v.488a1.705 1.705 0 0 0-1.285 1.652Zm-2.57 1.774a1.713 1.713 0 0 0-1.285 1.656c0 .781.53 1.46 1.285 1.652v.488a.428.428 0 1 0 .855 0v-.488a1.705 1.705 0 0 0 1.285-1.652c0-.781-.53-1.461-1.285-1.656V8.145a.428.428 0 1 0-.855 0Zm0 0"/>
    <path d="M8.145 14.57A.857.857 0 1 1 9 13.715a.853.853 0 0 1-.855.855ZM15.855 14.57a.853.853 0 0 1-.855-.855.857.857 0 1 1 .855.855ZM12 3.855h8.805A11.954 11.954 0 0 0 10.453.102L7.5 5.219A8.094 8.094 0 0 1 12 3.855ZM12 20.145H3.195a11.954 11.954 0 0 0 10.352 3.753l2.953-5.117a8.094 8.094 0 0 1-4.5 1.364ZM20.145 12a8.09 8.09 0 0 1-1.098 4.066l.008.004-.082.14-4.325 7.49a12.048 12.048 0 0 0 8.43-7.087l-2.96-5.129c.007.172.027.344.027.516ZM3.855 12a8.13 8.13 0 0 1 1.098-4.066l-.008-.004L9.352.3a12.048 12.048 0 0 0-8.43 7.087l2.96 5.129c-.007-.172-.027-.34-.027-.516ZM21.527 4.715h-5.914a8.186 8.186 0 0 1 3.43 3.219l.008-.004 4.41 7.633a11.99 11.99 0 0 0-1.934-10.848ZM4.953 16.063l-.008.007-.101-.18L.539 8.438a11.99 11.99 0 0 0 1.934 10.848h5.914a8.203 8.203 0 0 1-3.434-3.223Zm0 0"/>
  </g>
</svg>
