<?xml version="1.0" encoding="UTF-8"?>
<svg xmlns="http://www.w3.org/2000/svg" xmlns:xlink="http://www.w3.org/1999/xlink" width="16pt" height="16pt" viewBox="0 0 16 16" version="1.1">
<g id="surface1">
<path style=" stroke:none;fill-rule:nonzero;fill:rgb(100%,87.058824%,97.647059%);fill-opacity:1;" d="M 10.335938 0.1875 L 2.746094 0.1875 L 2.746094 15.8125 L 14.039062 15.8125 L 14.039062 3.835938 Z M 10.335938 0.1875 "/>
<path style=" stroke:none;fill-rule:nonzero;fill:rgb(58.431373%,36.862745%,53.333333%);fill-opacity:1;" d="M 10.335938 0.1875 L 14.039062 3.835938 L 10.335938 3.835938 Z M 10.335938 0.1875 "/>
<path style=" stroke:none;fill-rule:nonzero;fill:rgb(58.431373%,36.862745%,53.333333%);fill-opacity:1;" d="M 1.960938 9.335938 L 12.242188 9.335938 L 12.242188 14.214844 L 1.960938 14.214844 Z M 1.960938 9.335938 "/>
<path style=" stroke:none;fill-rule:nonzero;fill:rgb(41.960784%,21.568627%,38.823529%);fill-opacity:1;" d="M 1.960938 14.214844 L 2.746094 14.878906 L 2.746094 14.214844 Z M 1.960938 14.214844 "/>
<path style=" stroke:none;fill-rule:nonzero;fill:rgb(100%,100%,100%);fill-opacity:1;" d="M 4.804688 12.425781 C 4.804688 11.324219 3.179688 11.582031 3.179688 11.011719 C 3.179688 10.804688 3.324219 10.707031 3.515625 10.710938 C 3.734375 10.714844 3.882812 10.84375 3.898438 11.054688 L 4.765625 11.054688 C 4.730469 10.425781 4.25 10.070312 3.53125 10.070312 C 2.84375 10.070312 2.332031 10.414062 2.332031 11.039062 C 2.320312 12.207031 3.96875 11.878906 3.96875 12.488281 C 3.96875 12.679688 3.816406 12.796875 3.582031 12.796875 C 3.359375 12.796875 3.199219 12.675781 3.175781 12.421875 L 2.320312 12.421875 C 2.34375 13.085938 2.898438 13.4375 3.605469 13.4375 C 4.375 13.4375 4.804688 12.980469 4.804688 12.425781 Z M 6.71875 12.601562 L 5.902344 10.117188 L 5.050781 10.117188 L 6.21875 13.40625 L 7.21875 13.40625 L 8.386719 10.117188 L 7.539062 10.117188 Z M 10.257812 10.078125 C 9.273438 10.078125 8.585938 10.773438 8.585938 11.757812 C 8.585938 12.742188 9.277344 13.429688 10.261719 13.429688 C 11.128906 13.429688 11.679688 12.863281 11.847656 12.296875 L 11.847656 11.550781 L 10.101562 11.550781 L 10.101562 12.140625 L 11.121094 12.140625 C 11 12.511719 10.722656 12.722656 10.324219 12.722656 C 9.746094 12.722656 9.398438 12.367188 9.398438 11.757812 C 9.398438 11.183594 9.742188 10.820312 10.257812 10.820312 C 10.558594 10.820312 10.78125 10.9375 10.90625 11.15625 L 11.789062 11.15625 C 11.617188 10.480469 11.046875 10.078125 10.257812 10.078125 Z M 10.257812 10.078125 "/>
</g>
</svg>
