<?xml version="1.0" encoding="UTF-8"?>
<svg xmlns="http://www.w3.org/2000/svg" xmlns:xlink="http://www.w3.org/1999/xlink" width="16pt" height="16pt" viewBox="0 0 16 16" version="1.1">
<g id="surface1">
<path style=" stroke:none;fill-rule:nonzero;fill:rgb(100%,87.058824%,97.647059%);fill-opacity:1;" d="M 10.335938 0.1875 L 2.746094 0.1875 L 2.746094 15.8125 L 14.039062 15.8125 L 14.039062 3.835938 Z M 10.335938 0.1875 "/>
<path style=" stroke:none;fill-rule:nonzero;fill:rgb(70.196078%,4.313725%,0%);fill-opacity:1;" d="M 10.335938 0.1875 L 14.039062 3.835938 L 10.335938 3.835938 Z M 10.335938 0.1875 "/>
<path style=" stroke:none;fill-rule:nonzero;fill:rgb(70.196078%,4.313725%,0%);fill-opacity:1;" d="M 1.960938 9.335938 L 12.242188 9.335938 L 12.242188 14.214844 L 1.960938 14.214844 Z M 1.960938 9.335938 "/>
<path style=" stroke:none;fill-rule:nonzero;fill:rgb(41.960784%,21.568627%,38.823529%);fill-opacity:1;" d="M 1.960938 14.214844 L 2.746094 14.878906 L 2.746094 14.214844 Z M 1.960938 14.214844 "/>
<path style=" stroke:none;fill-rule:nonzero;fill:rgb(100%,100%,100%);fill-opacity:1;" d="M 3.65625 11.429688 L 3.65625 10.605469 L 4.089844 10.605469 C 4.410156 10.605469 4.546875 10.765625 4.546875 11.019531 C 4.546875 11.273438 4.410156 11.429688 4.089844 11.429688 Z M 5.359375 11.019531 C 5.359375 10.414062 4.957031 9.960938 4.152344 9.960938 L 2.851562 9.960938 L 2.851562 13.25 L 3.65625 13.25 L 3.65625 12.070312 L 4.152344 12.070312 C 4.992188 12.070312 5.359375 11.5625 5.359375 11.019531 Z M 7.011719 9.960938 L 5.777344 9.960938 L 5.777344 13.25 L 7.011719 13.25 C 8.0625 13.25 8.734375 12.578125 8.734375 11.605469 C 8.734375 10.625 8.0625 9.960938 7.011719 9.960938 Z M 6.578125 12.554688 L 6.578125 10.644531 L 6.960938 10.644531 C 7.5625 10.644531 7.921875 11 7.921875 11.605469 C 7.921875 12.210938 7.5625 12.554688 6.960938 12.554688 Z M 9.1875 13.25 L 9.988281 13.25 L 9.988281 11.917969 L 10.992188 11.917969 L 10.992188 11.296875 L 9.988281 11.296875 L 9.988281 10.601562 L 11.328125 10.601562 L 11.328125 9.960938 L 9.1875 9.960938 Z M 9.1875 13.25 "/>
</g>
</svg>
