<?xml version="1.0" encoding="UTF-8"?>
<svg xmlns="http://www.w3.org/2000/svg" xmlns:xlink="http://www.w3.org/1999/xlink" width="16pt" height="16pt" viewBox="0 0 16 16" version="1.1">
<g id="surface1">
<path style=" stroke:none;fill-rule:nonzero;fill:rgb(100%,87.058824%,97.647059%);fill-opacity:1;" d="M 10.335938 0.1875 L 2.746094 0.1875 L 2.746094 15.8125 L 14.039062 15.8125 L 14.039062 3.835938 Z M 10.335938 0.1875 "/>
<path style=" stroke:none;fill-rule:nonzero;fill:rgb(25.882353%,78.039216%,95.294118%);fill-opacity:1;" d="M 10.335938 0.1875 L 14.039062 3.835938 L 10.335938 3.835938 Z M 10.335938 0.1875 "/>
<path style=" stroke:none;fill-rule:nonzero;fill:rgb(25.882353%,78.039216%,95.294118%);fill-opacity:1;" d="M 1.960938 9.335938 L 12.242188 9.335938 L 12.242188 14.214844 L 1.960938 14.214844 Z M 1.960938 9.335938 "/>
<path style=" stroke:none;fill-rule:nonzero;fill:rgb(41.960784%,21.568627%,38.823529%);fill-opacity:1;" d="M 1.960938 14.214844 L 2.746094 14.878906 L 2.746094 14.214844 Z M 1.960938 14.214844 "/>
<path style=" stroke:none;fill-rule:nonzero;fill:rgb(100%,100%,100%);fill-opacity:1;" d="M 4.082031 12.355469 C 4.082031 12.601562 3.96875 12.722656 3.777344 12.722656 C 3.570312 12.722656 3.449219 12.585938 3.449219 12.304688 L 2.652344 12.304688 C 2.652344 13.046875 3.125 13.4375 3.800781 13.4375 C 4.453125 13.4375 4.882812 13.0625 4.882812 12.355469 L 4.882812 10.117188 L 4.082031 10.117188 Z M 6.332031 11.585938 L 6.332031 10.761719 L 6.769531 10.761719 C 7.085938 10.761719 7.222656 10.921875 7.222656 11.175781 C 7.222656 11.429688 7.085938 11.585938 6.769531 11.585938 Z M 8.039062 11.175781 C 8.039062 10.570312 7.636719 10.117188 6.828125 10.117188 L 5.53125 10.117188 L 5.53125 13.40625 L 6.332031 13.40625 L 6.332031 12.226562 L 6.828125 12.226562 C 7.667969 12.226562 8.039062 11.71875 8.039062 11.175781 Z M 9.992188 10.078125 C 9.007812 10.078125 8.320312 10.773438 8.320312 11.757812 C 8.320312 12.742188 9.015625 13.429688 10 13.429688 C 10.867188 13.429688 11.414062 12.863281 11.582031 12.296875 L 11.582031 11.550781 L 9.839844 11.550781 L 9.839844 12.140625 L 10.855469 12.140625 C 10.734375 12.511719 10.457031 12.722656 10.058594 12.722656 C 9.484375 12.722656 9.136719 12.367188 9.136719 11.757812 C 9.136719 11.183594 9.476562 10.820312 9.992188 10.820312 C 10.292969 10.820312 10.519531 10.9375 10.640625 11.15625 L 11.527344 11.15625 C 11.351562 10.480469 10.78125 10.078125 9.992188 10.078125 Z M 9.992188 10.078125 "/>
</g>
</svg>
