<?xml version="1.0" encoding="UTF-8"?>
<svg xmlns="http://www.w3.org/2000/svg" xmlns:xlink="http://www.w3.org/1999/xlink" width="16pt" height="16pt" viewBox="0 0 16 16" version="1.1">
<g id="surface1">
<path style=" stroke:none;fill-rule:nonzero;fill:rgb(100%,87.058824%,97.647059%);fill-opacity:1;" d="M 10.335938 0.1875 L 2.746094 0.1875 L 2.746094 15.8125 L 14.039062 15.8125 L 14.039062 3.835938 Z M 10.335938 0.1875 "/>
<path style=" stroke:none;fill-rule:nonzero;fill:rgb(94.117647%,76.862745%,9.803922%);fill-opacity:1;" d="M 10.335938 0.1875 L 14.039062 3.835938 L 10.335938 3.835938 Z M 10.335938 0.1875 "/>
<path style=" stroke:none;fill-rule:nonzero;fill:rgb(94.117647%,76.862745%,9.803922%);fill-opacity:1;" d="M 1.960938 9.335938 L 12.242188 9.335938 L 12.242188 14.214844 L 1.960938 14.214844 Z M 1.960938 9.335938 "/>
<path style=" stroke:none;fill-rule:nonzero;fill:rgb(41.960784%,21.568627%,38.823529%);fill-opacity:1;" d="M 1.960938 14.214844 L 2.746094 14.878906 L 2.746094 14.214844 Z M 1.960938 14.214844 "/>
<path style=" stroke:none;fill-rule:nonzero;fill:rgb(100%,100%,100%);fill-opacity:1;" d="M 3.125 11.585938 L 3.125 10.761719 L 3.558594 10.761719 C 3.878906 10.761719 4.015625 10.921875 4.015625 11.175781 C 4.015625 11.429688 3.878906 11.585938 3.558594 11.585938 Z M 4.828125 11.175781 C 4.828125 10.570312 4.425781 10.117188 3.621094 10.117188 L 2.320312 10.117188 L 2.320312 13.40625 L 3.125 13.40625 L 3.125 12.226562 L 3.621094 12.226562 C 4.460938 12.226562 4.828125 11.71875 4.828125 11.175781 Z M 7.390625 10.117188 L 7.390625 12.15625 L 6.046875 10.117188 L 5.246094 10.117188 L 5.246094 13.40625 L 6.046875 13.40625 L 6.046875 11.375 L 7.390625 13.40625 L 8.191406 13.40625 L 8.191406 10.117188 Z M 10.308594 10.078125 C 9.324219 10.078125 8.636719 10.773438 8.636719 11.757812 C 8.636719 12.742188 9.328125 13.429688 10.3125 13.429688 C 11.179688 13.429688 11.730469 12.863281 11.898438 12.296875 L 11.898438 11.550781 L 10.15625 11.550781 L 10.15625 12.140625 L 11.171875 12.140625 C 11.050781 12.511719 10.773438 12.722656 10.375 12.722656 C 9.796875 12.722656 9.453125 12.367188 9.453125 11.757812 C 9.453125 11.183594 9.792969 10.820312 10.308594 10.820312 C 10.609375 10.820312 10.835938 10.9375 10.957031 11.15625 L 11.84375 11.15625 C 11.667969 10.480469 11.097656 10.078125 10.308594 10.078125 Z M 10.308594 10.078125 "/>
</g>
</svg>
