<?xml version="1.0" encoding="UTF-8"?>
<svg xmlns="http://www.w3.org/2000/svg" xmlns:xlink="http://www.w3.org/1999/xlink" width="24px" height="24px" viewBox="0 0 24 24" version="1.1">
<g id="surface1">
<path style=" stroke:none;fill-rule:nonzero;fill:rgb(54.901961%,54.901961%,54.901961%);fill-opacity:1;" d="M 1.101562 23.839844 C 0.820312 23.703125 0.207031 23.25 0.308594 23.25 C 0.328125 23.25 0.308594 23.210938 0.265625 23.164062 C 0.226562 23.125 0.148438 22.988281 0.0976562 22.875 C 0.015625 22.695312 0 22.566406 0 22.003906 C 0 21.359375 0.00390625 21.332031 0.140625 21.0625 C 0.300781 20.746094 0.675781 20.363281 0.976562 20.207031 C 1.460938 19.960938 0.957031 19.96875 11.882812 19.96875 C 18.257812 19.96875 22.109375 19.988281 22.289062 20.015625 C 22.867188 20.109375 23.464844 20.550781 23.734375 21.074219 C 23.839844 21.296875 23.96875 21.757812 23.96875 21.960938 C 23.972656 22.148438 23.898438 22.527344 23.8125 22.742188 C 23.765625 22.871094 23.738281 22.96875 23.746094 22.96875 C 23.796875 22.96875 22.964844 23.796875 22.914062 23.804688 C 22.878906 23.804688 22.734375 23.851562 22.59375 23.902344 C 22.335938 23.996094 22.261719 23.996094 11.882812 23.996094 L 1.429688 23.996094 Z M 1.101562 23.839844 "/>
<path style=" stroke:none;fill-rule:nonzero;fill:rgb(54.901961%,54.901961%,54.901961%);fill-opacity:1;" d="M 5.925781 17.921875 C 5.96875 17.78125 6.492188 15.921875 6.773438 14.929688 C 6.917969 14.414062 7.082031 13.824219 7.144531 13.617188 C 7.203125 13.410156 7.320312 12.988281 7.40625 12.679688 L 7.5625 12.117188 L 11.746094 7.921875 L 15.9375 3.726562 L 20.203125 7.992188 L 11.84375 16.351562 L 11.277344 16.515625 C 10.964844 16.601562 10.398438 16.765625 10.007812 16.875 C 9.625 16.984375 9.09375 17.128906 8.835938 17.203125 C 8.578125 17.277344 7.988281 17.445312 7.523438 17.578125 C 7.058594 17.703125 6.535156 17.855469 6.351562 17.90625 C 5.949219 18.023438 5.890625 18.023438 5.925781 17.921875 Z M 5.925781 17.921875 "/>
<path style=" stroke:none;fill-rule:nonzero;fill:rgb(54.901961%,54.901961%,54.901961%);fill-opacity:1;" d="M 19.453125 4.476562 L 17.320312 2.34375 L 18.09375 1.566406 C 18.726562 0.929688 19.484375 0.265625 19.59375 0.257812 C 19.609375 0.253906 19.765625 0.203125 19.945312 0.140625 C 20.234375 0.0390625 20.351562 0.0234375 20.929688 0.0234375 C 21.613281 0.0234375 21.84375 0.0703125 22.296875 0.289062 C 22.5625 0.421875 23.039062 0.816406 23.28125 1.109375 C 23.460938 1.320312 23.746094 1.84375 23.835938 2.117188 C 23.925781 2.40625 23.996094 3.226562 23.945312 3.375 C 23.929688 3.414062 23.890625 3.566406 23.859375 3.722656 C 23.828125 3.871094 23.71875 4.167969 23.609375 4.378906 C 23.4375 4.714844 23.316406 4.859375 22.5 5.6875 L 21.585938 6.613281 Z M 19.453125 4.476562 "/>
</g>
</svg>
