<?xml version="1.0" encoding="UTF-8"?>
<svg xmlns="http://www.w3.org/2000/svg" xmlns:xlink="http://www.w3.org/1999/xlink" width="16pt" height="16pt" viewBox="0 0 16 16" version="1.1">
<g id="surface1">
<path style=" stroke:none;fill-rule:nonzero;fill:rgb(100%,87.058824%,97.647059%);fill-opacity:1;" d="M 10.335938 0.1875 L 2.746094 0.1875 L 2.746094 15.8125 L 14.039062 15.8125 L 14.039062 3.835938 Z M 10.335938 0.1875 "/>
<path style=" stroke:none;fill-rule:nonzero;fill:rgb(58.431373%,36.862745%,53.333333%);fill-opacity:1;" d="M 10.335938 0.1875 L 14.039062 3.835938 L 10.335938 3.835938 Z M 10.335938 0.1875 "/>
<path style=" stroke:none;fill-rule:nonzero;fill:rgb(58.431373%,36.862745%,53.333333%);fill-opacity:1;" d="M 1.960938 9.335938 L 12.242188 9.335938 L 12.242188 14.214844 L 1.960938 14.214844 Z M 1.960938 9.335938 "/>
<path style=" stroke:none;fill-rule:nonzero;fill:rgb(41.960784%,21.568627%,38.823529%);fill-opacity:1;" d="M 1.960938 14.214844 L 2.746094 14.878906 L 2.746094 14.214844 Z M 1.960938 14.214844 "/>
<path style=" stroke:none;fill-rule:nonzero;fill:rgb(100%,100%,100%);fill-opacity:1;" d="M 5.109375 11.984375 C 5.109375 11.933594 5.082031 11.890625 5.023438 11.851562 C 4.96875 11.816406 4.867188 11.78125 4.722656 11.75 C 4.492188 11.707031 4.320312 11.632812 4.199219 11.539062 C 4.085938 11.445312 4.023438 11.316406 4.023438 11.148438 C 4.023438 10.976562 4.097656 10.828125 4.242188 10.707031 C 4.390625 10.585938 4.585938 10.523438 4.835938 10.523438 C 5.101562 10.523438 5.308594 10.585938 5.464844 10.699219 C 5.621094 10.820312 5.695312 10.96875 5.6875 11.15625 L 5.683594 11.167969 L 5.085938 11.167969 C 5.085938 11.089844 5.066406 11.03125 5.023438 10.992188 C 4.988281 10.949219 4.921875 10.929688 4.835938 10.929688 C 4.769531 10.929688 4.714844 10.949219 4.671875 10.984375 C 4.628906 11.019531 4.605469 11.066406 4.605469 11.117188 C 4.605469 11.171875 4.632812 11.214844 4.679688 11.253906 C 4.730469 11.289062 4.835938 11.320312 4.988281 11.351562 C 5.230469 11.398438 5.410156 11.472656 5.523438 11.566406 C 5.640625 11.660156 5.699219 11.792969 5.699219 11.964844 C 5.699219 12.144531 5.621094 12.289062 5.460938 12.40625 C 5.304688 12.523438 5.097656 12.578125 4.835938 12.578125 C 4.570312 12.578125 4.355469 12.507812 4.199219 12.375 C 4.042969 12.242188 3.96875 12.085938 3.976562 11.917969 L 3.976562 11.910156 L 4.539062 11.910156 C 4.539062 12.003906 4.570312 12.070312 4.621094 12.113281 C 4.675781 12.152344 4.753906 12.175781 4.851562 12.175781 C 4.9375 12.175781 5 12.160156 5.039062 12.128906 C 5.085938 12.085938 5.109375 12.042969 5.109375 11.984375 Z M 5.109375 11.984375 "/>
<path style=" stroke:none;fill-rule:nonzero;fill:rgb(100%,100%,100%);fill-opacity:1;" d="M 6.996094 11.722656 L 7.035156 11.929688 L 7.042969 11.933594 L 7.085938 11.722656 L 7.34375 10.5625 L 7.992188 10.5625 L 7.351562 12.539062 L 6.722656 12.539062 L 6.082031 10.5625 L 6.730469 10.5625 Z M 6.996094 11.722656 "/>
<path style=" stroke:none;fill-rule:nonzero;fill:rgb(100%,100%,100%);fill-opacity:1;" d="M 8.335938 11.554688 C 8.335938 11.242188 8.402344 10.996094 8.539062 10.804688 C 8.671875 10.617188 8.863281 10.523438 9.105469 10.523438 C 9.210938 10.523438 9.300781 10.546875 9.382812 10.597656 C 9.460938 10.648438 9.527344 10.714844 9.585938 10.804688 L 9.625 10.558594 L 10.167969 10.558594 L 10.167969 12.515625 C 10.167969 12.773438 10.078125 12.976562 9.898438 13.121094 C 9.722656 13.265625 9.476562 13.335938 9.164062 13.335938 C 9.058594 13.335938 8.953125 13.324219 8.839844 13.296875 C 8.726562 13.269531 8.621094 13.230469 8.519531 13.183594 L 8.625 12.726562 C 8.710938 12.765625 8.800781 12.796875 8.882812 12.816406 C 8.960938 12.835938 9.054688 12.84375 9.160156 12.84375 C 9.289062 12.84375 9.386719 12.820312 9.453125 12.765625 C 9.515625 12.710938 9.550781 12.632812 9.550781 12.515625 L 9.550781 12.363281 C 9.492188 12.433594 9.429688 12.488281 9.355469 12.523438 C 9.28125 12.5625 9.195312 12.582031 9.101562 12.582031 C 8.859375 12.582031 8.671875 12.492188 8.539062 12.308594 C 8.402344 12.128906 8.335938 11.890625 8.335938 11.59375 Z M 8.949219 11.589844 C 8.949219 11.75 8.972656 11.878906 9.023438 11.964844 C 9.070312 12.054688 9.148438 12.101562 9.257812 12.101562 C 9.324219 12.101562 9.382812 12.089844 9.429688 12.070312 C 9.476562 12.046875 9.519531 12.015625 9.550781 11.976562 L 9.550781 11.144531 C 9.519531 11.097656 9.480469 11.058594 9.433594 11.035156 C 9.386719 11.007812 9.332031 10.996094 9.265625 10.996094 C 9.15625 10.996094 9.074219 11.046875 9.027344 11.148438 C 8.976562 11.253906 8.953125 11.382812 8.953125 11.550781 L 8.953125 11.589844 Z M 8.949219 11.589844 "/>
</g>
</svg>
