<svg id="SvgjsSvg1001" width="288" height="288" xmlns="http://www.w3.org/2000/svg" version="1.1" xmlns:xlink="http://www.w3.org/1999/xlink" xmlns:svgjs="http://svgjs.com/svgjs"><defs id="SvgjsDefs1002"></defs><g id="SvgjsG1008" transform="matrix(1,0,0,1,0,0)"><svg xmlns="http://www.w3.org/2000/svg" xmlns:svgjs="http://svgjs.com/svgjs" xmlns:xlink="http://www.w3.org/1999/xlink" width="288" height="288"><svg xmlns="http://www.w3.org/2000/svg" xmlns:svgjs="http://svgjs.com/svgjs" xmlns:xlink="http://www.w3.org/1999/xlink" width="288" height="288"><svg xmlns="http://www.w3.org/2000/svg" width="288" height="288" enable-background="new 0 0 512 512" viewBox="0 0 512 512"><path fill="#666666" d="M484.799,112.939L248.55,349.188c-1.968,1.968-4.436,3.358-7.138,4.021l-94.118,23.113			c-1.202,0.295-2.422,0.439-3.632,0.439c-3.99,0-7.878-1.57-10.769-4.461c-3.767-3.767-5.292-9.228-4.021-14.401l23.113-94.118			c0.663-2.701,2.053-5.17,4.021-7.138L378.699,33.952H87.989c-44.765,0-81.183,36.419-81.183,81.183v315.684
			C6.806,475.582,43.224,512,87.989,512h315.684c44.763,0,81.182-36.419,81.182-81.182V115.135
			C484.855,114.398,484.819,113.671,484.799,112.939z" class="color000 svgShape colorfff color404762"></path><path fill="#666666" d="M500.203 30.314L474.879 4.992c-6.656-6.656-17.486-6.656-24.141 0L201.344 254.385c1.034.624 2.019 1.367 2.912 2.26l46.742 46.742c.047.047.086.098.132.145L500.203 54.459C506.858 47.803 506.858 36.971 500.203 30.314zM182.716 278.183c-.868-.868-1.594-1.821-2.208-2.823l-16.057 65.384 64.89-15.936L182.716 278.183z" class="color000 svgShape colorfff color404762"></path></svg></svg></svg></g></svg>