<svg id="SvgjsSvg1001" width="288" height="288" xmlns="http://www.w3.org/2000/svg" version="1.1" xmlns:xlink="http://www.w3.org/1999/xlink" xmlns:svgjs="http://svgjs.com/svgjs"><defs id="SvgjsDefs1002"></defs><g id="SvgjsG1008" transform="matrix(1,0,0,1,0,0)"><svg xmlns="http://www.w3.org/2000/svg" xmlns:svgjs="http://svgjs.com/svgjs" xmlns:xlink="http://www.w3.org/1999/xlink" width="288" height="288"><svg xmlns="http://www.w3.org/2000/svg" width="288" height="288" enable-background="new 0 0 24 24" viewBox="0 0 24 24"><path fill="#666666" d="M9.25 0h-7.5c-.965 0-1.75.785-1.75 1.75v4.5c0 .965.785 1.75 1.75 1.75h7.5c.965 0 1.75-.785 1.75-1.75v-4.5c0-.965-.785-1.75-1.75-1.75zM9.25 10h-7.5c-.965 0-1.75.785-1.75 1.75v10.5c0 .965.785 1.75 1.75 1.75h7.5c.965 0 1.75-.785 1.75-1.75v-10.5c0-.965-.785-1.75-1.75-1.75zM22.25 16h-7.5c-.965 0-1.75.785-1.75 1.75v4.5c0 .965.785 1.75 1.75 1.75h7.5c.965 0 1.75-.785 1.75-1.75v-4.5c0-.965-.785-1.75-1.75-1.75zM22.25 0h-7.5c-.965 0-1.75.785-1.75 1.75v10.5c0 .965.785 1.75 1.75 1.75h7.5c.965 0 1.75-.785 1.75-1.75v-10.5c0-.965-.785-1.75-1.75-1.75z" class="color000 svgShape colorfff"></path></svg></svg></g></svg>