<svg id="SvgjsSvg1001" width="288" height="288" xmlns="http://www.w3.org/2000/svg" version="1.1" xmlns:xlink="http://www.w3.org/1999/xlink" xmlns:svgjs="http://svgjs.com/svgjs"><defs id="SvgjsDefs1002"></defs><g id="SvgjsG1008" transform="matrix(1,0,0,1,0,0)"><svg xmlns="http://www.w3.org/2000/svg" width="288" height="288" viewBox="0 0 512 512"><path d="m239.029 384.97a24 24 0 0 0 33.942 0l90.509-90.509a24 24 0 0 0 0-33.941 24 24 0 0 0 -33.941 0l-49.539 49.539v-262.059a24 24 0 0 0 -48 0v262.059l-49.539-49.539a24 24 0 0 0 -33.941 0 24 24 0 0 0 0 33.941z" fill="#ffffff" class="color000 svgShape"></path><path d="m464 232a24 24 0 0 0 -24 24v184h-368v-184a24 24 0 0 0 -48 0v192a40 40 0 0 0 40 40h384a40 40 0 0 0 40-40v-192a24 24 0 0 0 -24-24z" fill="#ffffff" class="color000 svgShape"></path></svg></g></svg>