<svg id="SvgjsSvg1001" width="288" height="288" xmlns="http://www.w3.org/2000/svg" version="1.1" xmlns:xlink="http://www.w3.org/1999/xlink" xmlns:svgjs="http://svgjs.com/svgjs"><defs id="SvgjsDefs1002"></defs><g id="SvgjsG1008" transform="matrix(1,0,0,1,0,0)"><svg xmlns="http://www.w3.org/2000/svg" enable-background="new 0 0 512 512" viewBox="0 0 512 512" width="288" height="288"><path d="M493.254,77.255l-58.508-58.51C422.742,6.742,406.465,0,389.49,0H352v112c0,8.836-7.164,16-16,16H80
		c-8.836,0-16-7.164-16-16V0H32C14.328,0,0,14.326,0,32v448c0,17.673,14.328,32,32,32h448c17.672,0,32-14.327,32-32V122.51
		C512,105.535,505.258,89.257,493.254,77.255z M448,448H64V256h384V448z" fill="#ffffff" class="color000 svgShape"></path><rect width="64" height="96" x="224" fill="#ffffff" class="color000 svgShape"></rect></svg></g></svg>